<svg width="20" height="40" viewBox="0 0 20 40" fill="none" xmlns="http://www.w3.org/2000/svg">
<path d="M10 0C3.93972 4.49555 0 11.7837 0 20.0027C0 28.2218 3.93972 35.5044 10 40C16.0603 35.499 20 28.2163 20 20.0027C20 11.7892 16.0603 4.50103 10 0ZM10.9311 35.1266L10.9203 35.1376C10.9203 35.1376 10.8988 35.1595 10.8934 35.1759C10.8665 35.2088 10.845 35.2416 10.8181 35.2745C10.8181 35.2745 10.8073 35.2799 10.8073 35.2854C10.8073 35.2909 10.7966 35.2964 10.7912 35.3018C10.7804 35.3128 10.7696 35.3183 10.7589 35.3292C10.7481 35.3402 10.732 35.3566 10.7212 35.3675C10.7051 35.3785 10.6889 35.3949 10.6728 35.4059C10.662 35.4114 10.6512 35.4223 10.6405 35.4278C10.6351 35.4278 10.6297 35.4387 10.6189 35.4442C10.6028 35.4552 10.5867 35.4606 10.5759 35.4716C10.5597 35.4825 10.5436 35.4935 10.5274 35.5044C10.5221 35.5044 10.5113 35.5099 10.5059 35.5154C10.4952 35.5154 10.4898 35.5263 10.479 35.5318C10.4736 35.5318 10.4629 35.5318 10.4575 35.5373C10.4413 35.5428 10.4252 35.5483 10.409 35.5537C10.3875 35.5592 10.3714 35.5702 10.3498 35.5756C10.3283 35.5811 10.3068 35.5866 10.2853 35.5921C10.2799 35.5921 10.2745 35.5921 10.2637 35.5975C10.2637 35.5975 10.2637 35.5975 10.2583 35.5975H10.2476C10.2368 35.5975 10.226 35.5975 10.2153 35.603C10.2045 35.603 10.1938 35.603 10.183 35.6085C10.1346 35.614 10.0861 35.6194 10.0377 35.6194C10.0269 35.6194 10.0161 35.6194 10.0108 35.6194C10 35.6194 9.98923 35.6194 9.98385 35.6194C9.93541 35.6194 9.88697 35.6194 9.83854 35.6085C9.82777 35.6085 9.81701 35.6085 9.80624 35.603C9.79548 35.603 9.78471 35.603 9.77395 35.5975H9.76319C9.76319 35.5975 9.76319 35.5975 9.7578 35.5975C9.75242 35.5975 9.74704 35.5975 9.73628 35.5921C9.71475 35.5866 9.69322 35.5811 9.67169 35.5756C9.65016 35.5702 9.63402 35.5592 9.61249 35.5537C9.59634 35.5483 9.58019 35.5428 9.56405 35.5373C9.55867 35.5373 9.5479 35.5373 9.54252 35.5318C9.53175 35.5318 9.52637 35.5209 9.51561 35.5154C9.51023 35.5154 9.49946 35.5099 9.49408 35.5044C9.47793 35.4935 9.46179 35.4825 9.44564 35.4716C9.42949 35.4606 9.41335 35.4552 9.40258 35.4442C9.3972 35.4442 9.39182 35.4333 9.38105 35.4278C9.37029 35.4223 9.35953 35.4114 9.34876 35.4059C9.33261 35.3949 9.31647 35.3785 9.30032 35.3675C9.28418 35.3566 9.27341 35.3457 9.25727 35.3292C9.2465 35.3183 9.23574 35.3128 9.22497 35.3018C9.22497 35.2964 9.21421 35.2909 9.20883 35.2854C9.20883 35.2854 9.19806 35.2799 9.19806 35.2745C9.17115 35.2416 9.14962 35.2088 9.12271 35.1759C9.11195 35.165 9.10118 35.154 9.0958 35.1376L9.08504 35.1266L2.86867 25.7467C2.56189 25.2813 2.5888 24.6407 2.98708 24.2519C3.49838 23.7645 4.29494 23.8686 4.66631 24.4381L7.55651 28.7967L4.44026 15.2991C4.30032 14.6968 4.67169 14.089 5.26372 13.9466C5.85576 13.8042 6.45318 14.1821 6.59311 14.7844L8.90205 24.7995V8.88159C8.90205 8.29021 9.31647 7.75907 9.89236 7.69884C10.5544 7.63313 11.1141 8.1588 11.1141 8.81588V24.794L13.4123 14.8446C13.5468 14.2697 14.0689 13.8481 14.6448 13.9247C15.3068 14.0123 15.732 14.6585 15.5813 15.2991L12.465 28.7967L15.3175 24.4928C15.6405 24.0055 16.2809 23.7974 16.7922 24.0767C17.3789 24.3997 17.5511 25.1499 17.1905 25.6975L10.9419 35.1266H10.9311Z" fill="#F9EACD"/>
</svg>
