<svg width="170" height="67" viewBox="0 0 170 67" fill="none" xmlns="http://www.w3.org/2000/svg">
<g clip-path="url(#clip0_148_292)">
<path d="M28.26 38.0601C28.26 39.5201 28.87 44.3801 28.87 44.3801C28.87 44.8801 28.69 45.3101 28.3 45.7001C27.94 46.0601 27.48 46.2401 26.98 46.2401C26.48 46.2401 26.05 46.0601 25.66 45.7001L25.02 45.0201L21.16 41.0501L18.44 38.2301L21.16 35.4801L24.41 32.1901L25.66 30.9001C25.98 30.5101 26.45 30.3301 26.98 30.3301C27.48 30.3301 27.94 30.5101 28.3 30.8701C28.69 31.2301 28.87 31.6601 28.87 32.1601C28.87 32.1601 28.26 36.7301 28.26 38.0601Z" fill="#F9EACD"/>
<path d="M93.33 12.76C93.26 12.69 93.19 12.62 93.04 12.55C93.36 12.37 93.68 12.23 93.97 12.12C95.65 11.44 97.26 11.12 98.79 11.12C100.93 11.12 102.69 11.37 104.04 11.91C105.4 12.41 106.4 12.87 107.08 13.3V8.56995L104.83 6.59996C104.33 6.20996 104.12 5.66996 104.12 5.02996C104.12 4.52996 104.26 4.09996 104.55 3.73996C104.84 3.37996 105.19 3.09996 105.62 2.94996L107.08 2.51996L115.01 0.129956C115.76 -0.120044 116.47 -0.0100445 117.12 0.489956C117.87 0.949956 118.23 1.62996 118.23 2.52996V26.82C118.23 30.07 115.6 32.7 112.35 32.7H107.08V17.55C106.76 17.16 106.4 16.84 105.94 16.51C105.58 16.26 105.15 16.01 104.55 15.76C103.94 15.51 103.26 15.4 102.55 15.4C101.73 15.4 100.94 15.65 100.16 16.15C99.37 16.65 98.66 17.47 98.05 18.58C97.84 18.94 97.59 19.33 97.44 19.76C97.26 19.05 97.01 18.33 96.76 17.69C95.87 15.65 94.72 13.97 93.33 12.76Z" fill="#F9EACD"/>
<path d="M121.24 43.6302C121.24 44.0902 121.03 44.5602 120.67 44.9202C120.31 45.3102 119.85 45.4902 119.38 45.4902H111.8C110.98 45.4902 110.23 45.3102 109.55 44.9202C108.91 44.5602 108.37 44.0602 107.91 43.4202C107.23 43.9202 106.16 44.4902 104.73 45.1402C103.55 45.7102 102.12 46.0302 100.44 46.1002H83.57C83.07 46.1002 82.61 45.8902 82.25 45.5302C81.89 45.1702 81.71 44.7402 81.71 44.2402C81.71 43.8502 81.82 43.4902 82.03 43.1302C82.21 43.0202 82.32 42.9202 82.46 42.7702C83 42.2302 83.5 41.6602 83.96 41.0502L84.03 40.9802C84.28 40.6602 84.53 40.2702 84.78 39.9102C85.32 39.0502 85.78 38.1902 86.17 37.3002C86.35 36.8702 86.53 36.4402 86.67 35.9802C86.71 35.8702 86.74 35.7302 86.81 35.6202C86.85 35.4802 86.88 35.3702 86.92 35.2302C86.96 35.0902 86.99 34.9802 87.03 34.8402C87.14 34.4502 87.21 34.0502 87.28 33.6602C87.32 33.5202 87.35 33.3702 87.39 33.2702C87.39 33.1602 87.39 33.0602 87.43 32.9502C87.43 32.8102 87.47 32.7002 87.47 32.5902C87.51 32.4502 87.51 32.3002 87.51 32.1602C87.55 32.0202 87.55 31.8702 87.55 31.7302C87.62 31.2702 87.62 30.8402 87.62 30.3702V29.8002C87.62 29.5902 87.58 29.4102 87.58 29.1902C87.54 29.0502 87.54 28.9002 87.54 28.7602C87.5 28.5502 87.5 28.3302 87.47 28.1202C87.43 27.9402 87.43 27.7602 87.4 27.5802C87.36 27.4402 87.33 27.2902 87.33 27.1502C87.33 27.0802 87.29 26.9702 87.26 26.9002C87.22 26.5802 87.15 26.2902 87.08 26.0102C86.72 24.6202 86.19 23.2902 85.51 22.0802C85.15 21.3702 84.72 20.6502 84.22 20.0102C83.68 19.2602 83.11 18.5802 82.47 17.9702C81.83 17.2902 81.08 16.6802 80.33 16.1502C79.58 16.6902 78.83 17.2902 78.19 17.9702C77.65 18.5102 77.15 19.0802 76.69 19.6502L76.62 19.7202C76.41 20.0102 76.23 20.2902 76.01 20.6102C75.94 20.6802 75.9 20.7502 75.87 20.8202C75.08 22.0302 74.44 23.3202 73.98 24.7102C73.94 24.8502 73.91 24.9602 73.84 25.1002C73.8 25.2102 73.77 25.3502 73.73 25.4902C73.69 25.6002 73.66 25.7402 73.62 25.8802C73.51 26.2702 73.44 26.6702 73.33 27.0602L73.26 27.4502C73.26 27.5602 73.22 27.6602 73.22 27.7702C73.22 27.9102 73.18 28.0202 73.18 28.1302C73.14 28.2402 73.14 28.4202 73.11 28.5202V28.9802C73.04 29.4402 73.04 29.8702 73.04 30.3402V30.8802C73.04 31.0902 73.04 31.3102 73.08 31.5202C73.08 31.6602 73.12 31.8102 73.12 31.9502C73.12 32.1602 73.16 32.3802 73.19 32.5602L73.26 33.1002C73.26 33.2402 73.3 33.4202 73.33 33.5302C73.33 33.6402 73.36 33.7102 73.36 33.8202C73.43 34.1102 73.5 34.4302 73.57 34.7102C73.64 35.0002 73.75 35.3202 73.82 35.6402C73.89 35.8202 73.93 35.9602 74 36.1402C74.68 38.1102 75.72 39.8902 77.04 41.4602C77.07 41.5002 77.07 41.5302 77.07 41.5302C77.43 41.9602 77.79 42.3502 78.18 42.7502C78.29 42.8602 78.39 42.9602 78.5 43.0402C78.5 43.0402 78.5133 43.0535 78.54 43.0802C78.83 43.4702 78.97 43.8702 78.97 44.2202C78.97 44.7202 78.79 45.1502 78.43 45.5102C78.04 45.8702 77.61 46.0802 77.11 46.0802H63.71C63.21 46.0802 62.78 45.8702 62.42 45.5102C62.03 45.1502 61.85 44.7202 61.85 44.2202C61.85 43.8302 62.03 43.4302 62.31 43.0402L64.81 39.2202V27.6402L62.63 28.0302C61.56 28.2102 60.49 28.4902 59.41 28.8902C58.3 29.2802 57.3 29.8202 56.41 30.5302C55.52 31.2102 54.77 32.1002 54.19 33.1402C53.62 34.2102 53.33 35.4602 53.33 36.8902C53.33 40.0702 54.58 41.6402 57.08 41.6402C58.04 41.6402 59.01 41.3202 59.97 40.7502C60.93 40.1402 61.83 39.5002 62.61 38.7502L60.72 41.4702L60.58 41.6802C60.33 42.0002 60.15 42.2902 60.01 42.6102C59.98 42.6802 59.94 42.7902 59.9 42.8602C59.83 43.0702 59.76 43.2502 59.72 43.4702C59.68 43.7202 59.65 43.9702 59.65 44.2202C59.65 44.3302 59.65 44.4302 59.69 44.5402C59.23 44.8302 58.73 45.1102 58.19 45.4002C56.4 46.2902 54.4 46.7602 52.22 46.7602C50.72 46.7602 49.33 46.5802 48 46.1902C46.68 45.8702 45.57 45.3002 44.61 44.5502C43.65 43.8402 42.86 42.9402 42.32 41.8302C41.75 40.7602 41.5 39.4702 41.5 38.0402C41.5 36.5402 41.86 35.1802 42.61 33.9702C43.36 32.7502 44.36 31.7202 45.58 30.8302C46.79 29.9402 48.19 29.1502 49.72 28.5102C51.26 27.8302 52.83 27.3002 54.4 26.8702C55.97 26.4102 57.47 26.0802 58.9 25.8002C60.29 25.5102 61.51 25.3402 62.54 25.2302H62.61L64.79 24.9102V23.6902C64.79 20.4702 63.25 17.3702 60.54 15.6902C60.29 15.5502 60.04 15.4402 59.83 15.3302C58.87 14.8702 58.08 14.7202 57.61 14.6902C57.29 14.6502 57.07 14.6502 57.07 14.6502C56.32 14.6502 55.71 14.8302 55.14 15.1902C54.89 15.3302 54.68 15.5102 54.46 15.6902C54.21 15.9002 53.96 16.1502 53.78 16.4402C53.42 16.9802 53.14 17.5802 52.92 18.3002C52.89 18.4402 52.85 18.5502 52.81 18.6902C52.63 19.3002 52.49 19.9102 52.42 20.5802C52.28 21.5402 51.81 22.4002 51.03 23.1202C50.24 23.8002 49.31 24.1602 48.28 24.1602C47.39 24.1602 46.64 23.9502 45.96 23.5202C45.32 23.0602 44.82 22.5202 44.46 21.8802C44.1 21.2002 43.96 20.4902 44 19.7002C44 19.3802 44.07 19.0202 44.21 18.7002C44.35 18.2702 44.57 17.8802 44.85 17.4902C45.92 16.0202 47.28 14.8502 48.99 13.9502C49.49 13.6302 50.06 13.3802 50.63 13.1602C53.1 12.2002 55.6 11.7302 58.21 11.7302C60.07 11.7302 61.89 11.9102 63.54 12.1902H63.65C63.94 12.2302 64.15 12.3002 64.44 12.3302C64.44 12.4002 64.44 12.3302 64.65 12.4002C66.72 12.8302 68.87 12.9402 70.9 12.2902L72.76 11.7202C73.58 11.5102 74.3 11.6102 74.87 12.0402C75.62 12.5402 75.98 13.2202 75.98 14.1102V15.4002C76.98 14.4002 78.2 13.5402 79.59 12.8302C80.95 12.1202 82.48 11.7202 84.24 11.7202C85.46 11.7202 86.74 11.9302 88.1 12.3602C89.14 12.6802 90.1 13.1502 90.99 13.8202C91.28 14.0002 91.56 14.2502 91.85 14.5002C92.99 15.5002 93.96 16.8602 94.67 18.6502C95.42 20.4002 95.81 22.6202 95.81 25.3002V28.6202C95.81 33.2702 96.35 36.6202 97.45 38.7302C98.06 39.8402 98.77 40.7002 99.67 41.2002C100.42 41.6302 101.21 41.8402 102.1 41.8402C102.92 41.8402 103.6 41.7302 104.21 41.5202C104.78 41.3102 105.28 41.0602 105.75 40.7302C106.21 40.4102 106.64 40.0502 107.07 39.6202V35.5102H112.25C113.89 35.5102 115.47 36.2202 116.54 37.5102L118.22 39.4802L119.65 41.1602L119.86 41.4102L120.72 42.4502C121.08 42.8402 121.22 43.2402 121.22 43.6302H121.24Z" fill="#F9EACD"/>
<path d="M39.92 54.2802V61.3602C39.92 61.9702 39.71 62.4702 39.31 62.8602C38.92 63.2502 38.42 63.4302 37.81 63.4302H1.97C1.43 63.4302 1.01 63.2502 0.61 62.8602C0.22 62.4702 0 62.0002 0 61.5002C0 61.0702 0.18 60.6402 0.5 60.2502L2.8 57.5102C3.02 57.2502 3.14 56.9202 3.14 56.5802V20.0702C3.14 19.7302 3.02 19.4102 2.81 19.1502L0.5 16.3402C0.18 15.9502 0 15.5202 0 15.0902C0 14.5902 0.21 14.1302 0.61 13.7302C1 13.3402 1.43 13.1602 1.97 13.1602H43.99C43.24 13.8002 42.6 14.5502 42.02 15.3402C41.23 16.3802 40.73 17.5202 40.55 18.7002H23.61C18.84 18.7002 14.93 22.6002 14.93 27.3802V53.7202C14.93 54.8602 15.36 55.8602 16.15 56.6902C16.97 57.4802 17.94 57.9102 19.12 57.9102H22.27C24.87 57.9102 28.97 57.1502 31.35 56.1002C33.26 55.2602 35.07 54.1602 36.7 52.7602C37.02 52.4702 37.45 52.3302 37.95 52.3302C38.49 52.3302 38.91 52.5102 39.31 52.9002C39.7 53.2602 39.92 53.7202 39.92 54.2902V54.2802Z" fill="#F9EACD"/>
<path d="M167.48 44.5204C166.34 42.8804 165.05 41.5504 163.66 40.5904C162.05 39.4504 160.19 38.5904 158.12 38.0204C159.76 37.5204 161.27 36.7004 162.62 35.5904C163.73 34.6604 164.76 33.4104 165.73 31.8404C166.66 30.2704 167.12 28.2704 167.12 25.8004C167.12 23.9404 166.76 22.2304 165.98 20.6904C165.23 19.1504 164.12 17.8004 162.66 16.6904C161.2 15.5804 159.41 14.7204 157.3 14.0804C155.19 13.4704 152.83 13.1504 150.19 13.1504H120.46V18.7204H131.36V26.8004C131.36 30.0504 134 32.7004 137.26 32.7004H143.19V18.7304H146.16C147.34 18.7304 148.45 18.8404 149.48 19.0504C150.52 19.3004 151.41 19.7304 152.16 20.3404C152.95 20.9804 153.55 21.8404 153.98 22.9104C154.41 24.0204 154.62 25.4504 154.62 27.2004C154.62 28.9504 154.41 30.3804 153.98 31.4504C153.55 32.5604 152.94 33.3804 152.16 33.9904C151.41 34.6004 150.52 34.9904 149.48 35.2004C148.44 35.4104 147.34 35.5204 146.16 35.5204H137.26C134.01 35.5204 131.36 38.1604 131.36 41.4204V57.1404L128.71 60.2504C128.46 60.6104 128.32 61.0404 128.32 61.5004C128.32 62.0004 128.5 62.4604 128.86 62.8604C129.25 63.2504 129.72 63.4304 130.25 63.4304H152.26C154.9 63.4304 157.3 63.1404 159.41 62.5404C161.52 61.9404 163.27 61.0804 164.73 59.9704C166.2 58.8604 167.3 57.5404 168.09 55.9704C168.84 54.4304 169.23 52.7204 169.23 50.8204C169.23 48.2504 168.62 46.1704 167.48 44.5304V44.5204ZM156.05 53.6704C155.62 54.7804 155.01 55.6404 154.26 56.2404C153.47 56.8804 152.58 57.3104 151.54 57.5304C150.5 57.7804 149.4 57.8904 148.25 57.8904H147.32C146.18 57.8904 145.18 57.5004 144.39 56.6704C143.57 55.8504 143.17 54.8804 143.17 53.7004V41.0904H148.24C149.38 41.0904 150.49 41.1604 151.53 41.3804C152.57 41.5904 153.46 42.0204 154.25 42.6304C155 43.2704 155.61 44.1304 156.04 45.2004C156.5 46.3104 156.72 47.7004 156.72 49.4204C156.72 51.1404 156.51 52.6004 156.04 53.6704H156.05Z" fill="#F9EACD"/>
<path d="M57.17 63.9497V64.4297H61.142V63.9497C60.434 63.8777 60.11 63.6137 60.11 63.1457V61.7177C60.11 61.2377 60.338 60.9737 60.878 60.9737H61.358C62.33 60.9737 62.51 61.2257 62.606 61.7297H62.87V59.5937H62.606C62.51 60.1337 62.33 60.3617 61.358 60.3617H60.878C60.338 60.3617 60.11 60.0977 60.11 59.6177V58.3577C60.11 57.8777 60.338 57.5777 60.878 57.5777H61.898C62.606 57.5777 62.966 57.9617 63.386 58.6937H63.686C63.494 57.8177 63.47 57.4577 63.434 57.0977C63.422 57.0137 63.374 56.9777 63.266 56.9777H57.17V57.4577C57.758 57.5177 58.082 57.7937 58.082 58.2617V63.1457C58.082 63.6137 57.758 63.8777 57.17 63.9497ZM63.2609 63.9497V64.4297H66.2129V63.9497C65.3969 63.8057 65.1089 63.4217 65.3849 62.7857L65.3489 62.8577C65.4929 62.5217 65.7089 62.4737 66.0329 62.4737H67.7369C68.0009 62.4737 68.3129 62.4857 68.4569 62.8337L68.4689 62.8697C68.7089 63.4457 68.7089 63.8297 68.0129 63.9497V64.4297H71.5889V63.9617C70.9769 63.7817 70.8569 63.2777 70.4249 62.3537L67.8809 56.8817L66.8249 56.9777C66.8249 57.2057 66.7529 57.7577 66.4769 58.3697L64.5569 62.6297C64.2689 63.2897 64.0169 63.7817 63.2609 63.9497ZM65.9009 61.6337L66.7529 59.7257C66.8249 59.5337 66.8609 59.5337 66.9689 59.7377L67.8209 61.5497C67.9049 61.7537 67.7969 61.8497 67.6769 61.8497H66.0929C66.0089 61.8497 65.8409 61.7777 65.9009 61.6337ZM72.252 63.9497V64.4297H76.224V63.9497C75.516 63.8777 75.192 63.6137 75.192 63.1457V61.9217C75.192 61.4657 75.36 61.2497 75.78 61.2497C76.296 61.2497 76.524 61.5617 76.836 62.2937C77.448 63.7697 77.904 64.4297 79.44 64.4297H80.34V63.9497C79.704 63.9497 79.464 63.0377 79.272 62.6177C78.852 61.5017 78.432 61.2377 77.676 61.0337C77.592 61.0097 77.592 60.8657 77.676 60.8657C79.02 60.7577 79.656 59.9177 79.656 59.0177C79.656 57.6737 78.384 56.9777 76.644 56.9777H72.252V57.4577C72.84 57.5177 73.164 57.7937 73.164 58.2617V63.1457C73.164 63.6137 72.84 63.8777 72.252 63.9497ZM75.192 59.8817V58.3577C75.192 57.8657 75.324 57.5777 75.744 57.5777H76.416C77.256 57.5777 77.568 58.3697 77.568 59.0177C77.568 59.6297 77.268 60.5777 76.14 60.5777H75.852C75.36 60.5777 75.192 60.3617 75.192 59.8817ZM80.9356 63.9497V64.4297H83.6956V63.9497C83.0956 63.8777 82.6876 63.6137 82.6876 63.1457V58.7417L85.0996 63.8537H85.6636L87.9196 58.7897V63.1457C87.9196 63.6137 87.5956 63.8777 87.0196 63.9497V64.4297H90.8716V63.9497C90.2836 63.8777 89.9596 63.6137 89.9596 63.1457V58.2617C89.9596 57.7937 90.2836 57.5177 90.8716 57.4577V56.9777H87.9316L85.9636 61.4537L83.8636 56.9777H80.9356V57.4577C81.5236 57.5177 81.9076 57.7937 81.9076 58.2617V63.1457C81.9076 63.6137 81.5236 63.8777 80.9356 63.9497Z" fill="#F9EACD"/>
</g>
<defs>
<clipPath id="clip0_148_292">
<rect width="169.23" height="66.21" fill="white"/>
</clipPath>
</defs>
</svg>
