<svg width="580" height="602" viewBox="0 0 580 602" fill="none" xmlns="http://www.w3.org/2000/svg">
<path d="M291 0C255.85 26.0742 233 68.3455 233 116.016C233 163.686 255.85 205.926 291 232C326.15 205.894 349 163.654 349 116.016C349 68.3773 326.15 26.106 291 0V0ZM296.4 203.734L296.338 203.798C296.338 203.798 296.213 203.925 296.182 204.02C296.026 204.211 295.901 204.401 295.745 204.592C295.745 204.592 295.682 204.624 295.682 204.655C295.682 204.687 295.62 204.719 295.589 204.751C295.526 204.814 295.464 204.846 295.402 204.91C295.339 204.973 295.245 205.068 295.183 205.132C295.089 205.195 294.996 205.291 294.902 205.354C294.84 205.386 294.777 205.449 294.715 205.481C294.684 205.481 294.652 205.545 294.59 205.576C294.496 205.64 294.403 205.672 294.34 205.735C294.246 205.799 294.153 205.862 294.059 205.926C294.028 205.926 293.966 205.958 293.934 205.989C293.872 205.989 293.841 206.053 293.778 206.085C293.747 206.085 293.685 206.085 293.653 206.116C293.56 206.148 293.466 206.18 293.372 206.212C293.248 206.243 293.154 206.307 293.029 206.339C292.904 206.37 292.779 206.402 292.654 206.434C292.623 206.434 292.592 206.434 292.53 206.466C292.53 206.466 292.53 206.466 292.498 206.466H292.436C292.374 206.466 292.311 206.466 292.249 206.497C292.186 206.497 292.124 206.497 292.061 206.529C291.78 206.561 291.499 206.593 291.219 206.593C291.156 206.593 291.094 206.593 291.062 206.593C291 206.593 290.938 206.593 290.906 206.593C290.625 206.593 290.344 206.593 290.064 206.529C290.001 206.529 289.939 206.529 289.876 206.497C289.814 206.497 289.751 206.497 289.689 206.466H289.626C289.626 206.466 289.626 206.466 289.595 206.466C289.564 206.466 289.533 206.466 289.47 206.434C289.346 206.402 289.221 206.37 289.096 206.339C288.971 206.307 288.877 206.243 288.752 206.212C288.659 206.18 288.565 206.148 288.471 206.116C288.44 206.116 288.378 206.116 288.347 206.085C288.284 206.085 288.253 206.021 288.191 205.989C288.159 205.989 288.097 205.958 288.066 205.926C287.972 205.862 287.878 205.799 287.785 205.735C287.691 205.672 287.597 205.64 287.535 205.576C287.504 205.576 287.473 205.513 287.41 205.481C287.348 205.449 287.285 205.386 287.223 205.354C287.129 205.291 287.036 205.195 286.942 205.132C286.848 205.068 286.786 205.005 286.692 204.91C286.63 204.846 286.567 204.814 286.505 204.751C286.505 204.719 286.442 204.687 286.411 204.655C286.411 204.655 286.349 204.624 286.349 204.592C286.193 204.401 286.068 204.211 285.912 204.02C285.849 203.957 285.787 203.893 285.756 203.798L285.693 203.734L249.638 149.331C247.859 146.632 248.015 142.916 250.325 140.661C253.291 137.834 257.911 138.438 260.065 141.741L276.828 167.021L258.753 88.7348C257.942 85.2413 260.096 81.7161 263.53 80.8903C266.963 80.0646 270.428 82.256 271.24 85.7495L284.632 143.837V51.5132C284.632 48.0832 287.036 45.0026 290.376 44.6533C294.215 44.2721 297.462 47.321 297.462 51.1321V143.805L310.791 86.0989C311.572 82.7641 314.6 80.3187 317.94 80.7633C321.779 81.2715 324.245 85.019 323.371 88.7348L305.297 167.021L321.842 142.058C323.715 139.232 327.429 138.025 330.395 139.645C333.798 141.518 334.797 145.869 332.705 149.045L296.463 203.734H296.4Z" fill="#00BC89"/>
<path d="M291 602C326.15 575.926 349 533.654 349 485.984C349 438.314 326.15 396.074 291 370C255.85 396.106 233 438.346 233 485.984C233 533.623 255.85 575.894 291 602ZM285.6 398.266L285.662 398.202C285.662 398.202 285.787 398.075 285.818 397.98C285.974 397.789 286.099 397.599 286.255 397.408C286.255 397.408 286.318 397.376 286.318 397.345C286.318 397.313 286.38 397.281 286.411 397.249C286.474 397.186 286.536 397.154 286.599 397.09C286.661 397.027 286.755 396.932 286.817 396.868C286.911 396.805 287.004 396.709 287.098 396.646C287.16 396.614 287.223 396.551 287.285 396.519C287.316 396.519 287.348 396.455 287.41 396.424C287.504 396.36 287.597 396.328 287.66 396.265C287.754 396.201 287.847 396.138 287.941 396.074C287.972 396.074 288.034 396.042 288.066 396.011C288.128 396.011 288.159 395.947 288.222 395.915C288.253 395.915 288.315 395.915 288.347 395.884C288.44 395.852 288.534 395.82 288.628 395.788C288.752 395.757 288.846 395.693 288.971 395.661C289.096 395.63 289.221 395.598 289.346 395.566C289.377 395.566 289.408 395.566 289.47 395.534C289.47 395.534 289.47 395.534 289.502 395.534L289.564 395.534C289.626 395.534 289.689 395.534 289.751 395.503C289.814 395.503 289.876 395.503 289.939 395.471C290.22 395.439 290.501 395.407 290.782 395.407C290.844 395.407 290.906 395.407 290.938 395.407C291 395.407 291.062 395.407 291.094 395.407C291.375 395.407 291.656 395.407 291.937 395.471C291.999 395.471 292.061 395.471 292.124 395.503C292.186 395.503 292.249 395.503 292.311 395.534L292.374 395.534C292.374 395.534 292.374 395.534 292.405 395.534C292.436 395.534 292.467 395.534 292.53 395.566C292.654 395.598 292.779 395.63 292.904 395.661C293.029 395.693 293.123 395.757 293.248 395.788C293.341 395.82 293.435 395.852 293.529 395.884C293.56 395.884 293.622 395.884 293.653 395.915C293.716 395.915 293.747 395.979 293.809 396.011C293.841 396.011 293.903 396.042 293.934 396.074C294.028 396.138 294.122 396.201 294.215 396.265C294.309 396.328 294.403 396.36 294.465 396.424C294.496 396.424 294.527 396.487 294.59 396.519C294.652 396.551 294.715 396.614 294.777 396.646C294.871 396.709 294.965 396.805 295.058 396.868C295.152 396.932 295.214 396.995 295.308 397.09C295.37 397.154 295.433 397.186 295.495 397.249C295.495 397.281 295.558 397.313 295.589 397.345C295.589 397.345 295.651 397.376 295.651 397.408C295.807 397.599 295.932 397.789 296.088 397.98C296.151 398.043 296.213 398.107 296.244 398.202L296.307 398.266L332.362 452.669C334.141 455.368 333.985 459.084 331.675 461.339C328.709 464.166 324.089 463.562 321.935 460.259L305.172 434.979L323.247 513.265C324.058 516.759 321.904 520.284 318.47 521.11C315.037 521.935 311.572 519.744 310.76 516.251L297.368 458.163L297.368 550.487C297.368 553.917 294.964 556.997 291.624 557.347C287.785 557.728 284.538 554.679 284.538 550.868L284.538 458.195L271.209 515.901C270.428 519.236 267.4 521.681 264.06 521.237C260.221 520.729 257.755 516.981 258.629 513.265L276.703 434.979L260.158 459.942C258.285 462.768 254.571 463.975 251.605 462.355C248.202 460.482 247.203 456.131 249.295 452.955L285.537 398.266L285.6 398.266Z" fill="#00BC89"/>
<path d="M551 150.229C510.844 132.826 462.811 134.173 421.527 158.008C380.244 181.843 355.088 222.752 350.082 266.229C390.265 283.617 438.271 282.286 479.527 258.467C520.784 234.648 545.966 193.723 551 150.229V150.229ZM377.261 256.774L377.175 256.751C377.175 256.751 377.002 256.707 376.904 256.727C376.661 256.687 376.434 256.675 376.191 256.635C376.191 256.635 376.132 256.596 376.104 256.612C376.077 256.628 376.018 256.59 375.975 256.579C375.889 256.557 375.83 256.518 375.744 256.496C375.658 256.474 375.528 256.44 375.442 256.418C375.34 256.369 375.211 256.335 375.109 256.286C375.05 256.248 374.964 256.225 374.905 256.187C374.89 256.16 374.819 256.165 374.761 256.127C374.659 256.077 374.584 256.012 374.498 255.99C374.396 255.94 374.294 255.891 374.193 255.842C374.177 255.815 374.118 255.776 374.075 255.765C374.044 255.711 373.973 255.716 373.915 255.678C373.899 255.651 373.868 255.597 373.825 255.586C373.75 255.52 373.676 255.455 373.602 255.39C373.512 255.298 373.41 255.248 373.32 255.156C373.23 255.064 373.14 254.972 373.05 254.879C373.035 254.852 373.019 254.825 372.96 254.787C372.96 254.787 372.96 254.787 372.945 254.76L372.913 254.706C372.882 254.652 372.851 254.598 372.792 254.56C372.761 254.506 372.73 254.451 372.671 254.413C372.503 254.186 372.335 253.958 372.195 253.715C372.163 253.661 372.132 253.607 372.117 253.58C372.085 253.526 372.054 253.472 372.039 253.445C371.898 253.201 371.758 252.958 371.672 252.683C371.641 252.629 371.61 252.575 371.606 252.505C371.575 252.451 371.544 252.397 371.54 252.327L371.509 252.273C371.509 252.273 371.509 252.273 371.493 252.246C371.477 252.219 371.462 252.192 371.458 252.122C371.423 251.998 371.388 251.874 371.353 251.75C371.318 251.626 371.327 251.513 371.292 251.389C371.272 251.292 371.253 251.195 371.234 251.098C371.218 251.071 371.187 251.017 371.199 250.974C371.168 250.92 371.207 250.861 371.203 250.791C371.188 250.764 371.184 250.694 371.196 250.651C371.204 250.538 371.212 250.425 371.22 250.313C371.229 250.2 371.209 250.103 371.233 250.017C371.217 249.99 371.257 249.931 371.253 249.861C371.249 249.791 371.273 249.705 371.269 249.635C371.278 249.523 371.313 249.394 371.322 249.281C371.33 249.168 371.354 249.082 371.389 248.954C371.413 248.868 371.409 248.798 371.433 248.712C371.461 248.696 371.457 248.626 371.469 248.583C371.469 248.583 371.465 248.513 371.493 248.497C371.58 248.267 371.682 248.063 371.769 247.833C371.793 247.747 371.817 247.661 371.884 247.587L371.907 247.501L400.995 189.075C402.443 186.184 405.739 184.461 408.847 185.334C412.777 186.489 414.565 190.792 412.781 194.309L399.269 221.466L458.03 166.671C460.65 164.221 464.78 164.324 467.212 166.885C469.644 169.445 469.478 173.542 466.859 175.992L423.25 216.633L503.204 170.471C506.175 168.756 510.044 169.297 512.017 172.015C514.267 175.15 513.25 179.486 509.949 181.392L429.692 227.728L486.332 210.419C489.61 209.427 493.242 210.827 494.527 213.942C496.007 217.521 493.994 221.53 490.339 222.631L413.504 246.122L443.395 247.968C446.779 248.177 449.682 250.791 449.762 254.169C449.84 258.053 446.572 261.093 442.775 260.87L377.292 256.828L377.261 256.774Z" fill="#00BC89"/>
<path d="M29.6527 451.23C69.8084 468.633 117.842 467.286 159.125 443.451C200.409 419.616 225.565 378.707 230.571 335.23C190.387 317.842 142.382 319.173 101.125 342.992C59.8692 366.811 34.6863 407.736 29.6527 451.23ZM203.392 344.685L203.478 344.708C203.478 344.708 203.65 344.752 203.749 344.732C203.992 344.772 204.219 344.784 204.462 344.824C204.462 344.824 204.521 344.863 204.548 344.847C204.576 344.831 204.635 344.869 204.678 344.88C204.764 344.902 204.823 344.941 204.909 344.963C204.995 344.985 205.124 345.019 205.211 345.041C205.312 345.09 205.442 345.124 205.544 345.173C205.602 345.211 205.689 345.234 205.747 345.272C205.763 345.299 205.833 345.294 205.892 345.332C205.994 345.382 206.068 345.447 206.155 345.469C206.256 345.519 206.358 345.568 206.46 345.617C206.476 345.644 206.534 345.683 206.578 345.694C206.609 345.748 206.679 345.743 206.738 345.781C206.754 345.808 206.785 345.862 206.828 345.873C206.902 345.939 206.977 346.004 207.051 346.069C207.141 346.161 207.243 346.211 207.333 346.303C207.423 346.395 207.513 346.487 207.603 346.58C207.618 346.607 207.634 346.634 207.692 346.672C207.692 346.672 207.692 346.672 207.708 346.699L207.739 346.753C207.77 346.807 207.802 346.861 207.86 346.899C207.892 346.953 207.923 347.008 207.982 347.046C208.15 347.273 208.318 347.501 208.458 347.744C208.489 347.798 208.52 347.852 208.536 347.879C208.567 347.933 208.599 347.987 208.614 348.014C208.755 348.258 208.895 348.501 208.981 348.776C209.012 348.83 209.043 348.884 209.047 348.954C209.078 349.008 209.109 349.062 209.113 349.132L209.144 349.186C209.144 349.186 209.144 349.186 209.16 349.213C209.175 349.24 209.191 349.267 209.195 349.337C209.229 349.461 209.264 349.585 209.299 349.709C209.334 349.833 209.326 349.946 209.361 350.07C209.38 350.167 209.4 350.264 209.419 350.361C209.435 350.388 209.466 350.442 209.454 350.485C209.485 350.539 209.446 350.598 209.449 350.668C209.465 350.695 209.469 350.765 209.457 350.808C209.449 350.921 209.441 351.034 209.432 351.146C209.424 351.259 209.443 351.356 209.42 351.442C209.435 351.469 209.396 351.528 209.4 351.598C209.403 351.668 209.38 351.754 209.383 351.824C209.375 351.936 209.339 352.065 209.331 352.178C209.323 352.291 209.299 352.377 209.264 352.505C209.24 352.591 209.243 352.661 209.22 352.747C209.192 352.763 209.196 352.833 209.184 352.876C209.184 352.876 209.188 352.946 209.16 352.962C209.073 353.192 208.971 353.396 208.884 353.626C208.86 353.712 208.836 353.798 208.769 353.872L208.745 353.958L179.658 412.384C178.21 415.275 174.914 416.998 171.806 416.125C167.875 414.97 166.088 410.667 167.871 407.15L181.383 379.993L122.623 434.788C120.003 437.238 115.873 437.135 113.441 434.574C111.009 432.014 111.174 427.917 113.794 425.467L157.403 384.826L77.4485 430.988C74.4781 432.703 70.6084 432.162 68.6357 429.444C66.3859 426.309 67.403 421.973 70.7035 420.067L150.961 373.731L94.3209 391.04C91.0428 392.032 87.411 390.632 86.126 387.517C84.6462 383.938 86.6586 379.929 90.3137 378.828L167.149 355.337L137.258 353.491C133.874 353.282 130.971 350.668 130.891 347.29C130.812 343.406 134.081 340.366 137.877 340.589L203.36 344.631L203.392 344.685Z" fill="#00BC89"/>
<path d="M551 451.229C545.994 407.752 520.811 366.827 479.527 342.992C438.244 319.157 390.238 317.826 350.082 335.229C355.116 378.723 380.271 419.632 421.527 443.451C462.784 467.27 510.817 468.617 551 451.229V451.229ZM371.861 354.039L371.837 353.953C371.837 353.953 371.789 353.782 371.722 353.707C371.635 353.477 371.533 353.273 371.446 353.043C371.446 353.043 371.449 352.973 371.422 352.957C371.394 352.941 371.398 352.871 371.386 352.828C371.362 352.742 371.366 352.672 371.342 352.587C371.319 352.501 371.283 352.372 371.259 352.286C371.251 352.173 371.215 352.045 371.207 351.932C371.211 351.862 371.187 351.776 371.191 351.706C371.206 351.679 371.167 351.62 371.171 351.55C371.162 351.437 371.182 351.34 371.158 351.254C371.15 351.142 371.142 351.029 371.133 350.916C371.149 350.889 371.153 350.819 371.141 350.776C371.172 350.722 371.133 350.663 371.136 350.593C371.152 350.566 371.183 350.512 371.171 350.469C371.191 350.372 371.21 350.275 371.229 350.178C371.264 350.054 371.256 349.941 371.291 349.817C371.326 349.693 371.361 349.569 371.396 349.445C371.411 349.418 371.427 349.391 371.431 349.321C371.431 349.321 371.431 349.321 371.446 349.294L371.477 349.24C371.509 349.186 371.54 349.132 371.544 349.062C371.575 349.008 371.606 348.954 371.61 348.884C371.723 348.625 371.836 348.366 371.976 348.122C372.007 348.068 372.039 348.014 372.054 347.987C372.085 347.933 372.117 347.879 372.132 347.852C372.273 347.609 372.413 347.365 372.609 347.154C372.64 347.1 372.671 347.046 372.73 347.007C372.761 346.953 372.792 346.899 372.851 346.861L372.882 346.807C372.882 346.807 372.882 346.807 372.898 346.78C372.913 346.753 372.929 346.726 372.988 346.688C373.078 346.596 373.168 346.503 373.258 346.411C373.347 346.319 373.449 346.269 373.539 346.177C373.614 346.112 373.688 346.047 373.762 345.982C373.778 345.954 373.809 345.9 373.852 345.889C373.883 345.835 373.954 345.84 374.013 345.802C374.028 345.775 374.087 345.737 374.13 345.725C374.232 345.676 374.334 345.627 374.436 345.577C374.538 345.528 374.612 345.463 374.698 345.44C374.714 345.413 374.784 345.418 374.843 345.38C374.902 345.342 374.988 345.319 375.047 345.281C375.149 345.232 375.278 345.198 375.38 345.149C375.482 345.1 375.568 345.077 375.697 345.044C375.783 345.022 375.842 344.983 375.928 344.961C375.956 344.977 376.014 344.939 376.058 344.928C376.058 344.928 376.116 344.89 376.144 344.905C376.387 344.866 376.614 344.853 376.857 344.813C376.944 344.79 377.03 344.768 377.128 344.789L377.214 344.766L442.356 340.744C445.584 340.552 448.724 342.546 449.522 345.673C450.487 349.655 447.654 353.354 443.717 353.568L413.442 355.445L490.277 378.936C493.708 379.98 495.684 383.608 494.682 386.994C493.68 390.381 490.05 392.286 486.619 391.242L429.618 373.796L509.572 419.958C512.543 421.673 514.009 425.295 512.641 428.362C511.052 431.878 506.788 433.165 503.487 431.259L423.23 384.923L466.541 425.32C469.038 427.663 469.642 431.508 467.587 434.178C465.227 437.249 460.749 437.511 457.968 434.896L399.207 380.101L412.553 406.91C414.064 409.945 413.252 413.766 410.367 415.524C407.043 417.534 402.775 416.224 401.07 412.824L371.829 354.093L371.861 354.039Z" fill="#00BC89"/>
<path d="M29.6527 150.23C34.6588 193.707 59.8417 234.632 101.125 258.467C142.409 282.302 190.415 283.633 230.571 266.23C225.537 222.736 200.382 181.827 159.125 158.008C117.869 134.189 69.8359 132.842 29.6527 150.23ZM208.792 247.42L208.816 247.506C208.816 247.506 208.863 247.677 208.93 247.752C209.017 247.982 209.12 248.186 209.207 248.416C209.207 248.416 209.203 248.486 209.231 248.502C209.258 248.518 209.255 248.588 209.266 248.631C209.29 248.717 209.287 248.787 209.31 248.872C209.334 248.958 209.37 249.087 209.394 249.173C209.402 249.286 209.437 249.414 209.446 249.527C209.442 249.597 209.466 249.683 209.462 249.753C209.446 249.78 209.486 249.839 209.482 249.909C209.49 250.022 209.471 250.119 209.495 250.205C209.503 250.317 209.511 250.43 209.519 250.543C209.504 250.57 209.5 250.64 209.512 250.683C209.481 250.737 209.52 250.796 209.516 250.866C209.501 250.893 209.469 250.947 209.481 250.99C209.462 251.087 209.443 251.184 209.423 251.281C209.389 251.405 209.397 251.518 209.362 251.642C209.327 251.766 209.292 251.89 209.257 252.014C209.241 252.041 209.226 252.068 209.222 252.138C209.222 252.138 209.222 252.138 209.206 252.165L209.175 252.219C209.144 252.273 209.113 252.327 209.109 252.397C209.078 252.451 209.047 252.505 209.043 252.575C208.93 252.834 208.817 253.093 208.677 253.337C208.645 253.391 208.614 253.445 208.598 253.472C208.567 253.526 208.536 253.58 208.52 253.607C208.38 253.85 208.239 254.094 208.044 254.305C208.013 254.359 207.982 254.413 207.923 254.452C207.892 254.506 207.86 254.56 207.802 254.598L207.77 254.652C207.77 254.652 207.77 254.652 207.755 254.679C207.739 254.706 207.724 254.733 207.665 254.771C207.575 254.863 207.485 254.956 207.395 255.048C207.305 255.14 207.203 255.19 207.113 255.282C207.039 255.347 206.965 255.412 206.89 255.477C206.875 255.504 206.844 255.559 206.8 255.57C206.769 255.624 206.699 255.619 206.64 255.657C206.624 255.684 206.566 255.722 206.522 255.734C206.421 255.783 206.319 255.832 206.217 255.882C206.115 255.931 206.041 255.996 205.955 256.019C205.939 256.046 205.868 256.041 205.81 256.079C205.751 256.117 205.665 256.14 205.606 256.178C205.504 256.227 205.375 256.261 205.273 256.31C205.171 256.359 205.085 256.382 204.956 256.415C204.869 256.437 204.811 256.476 204.724 256.498C204.697 256.482 204.638 256.52 204.595 256.531C204.595 256.531 204.536 256.569 204.509 256.554C204.266 256.593 204.038 256.606 203.795 256.646C203.709 256.669 203.623 256.691 203.525 256.67L203.438 256.693L138.296 260.715C135.069 260.907 131.929 258.913 131.131 255.786C130.166 251.804 132.999 248.105 136.936 247.891L167.211 246.014L90.3761 222.523C86.9448 221.479 84.9688 217.851 85.9706 214.465C86.9724 211.078 90.6027 209.173 94.034 210.217L151.035 227.663L71.0804 181.501C68.1099 179.786 66.6439 176.164 68.0114 173.097C69.6012 169.581 73.8648 168.294 77.1653 170.2L157.422 216.536L114.112 176.139C111.614 173.796 111.011 169.951 113.066 167.281C115.426 164.21 119.904 163.948 122.685 166.563L181.446 221.358L168.1 194.549C166.588 191.514 167.401 187.693 170.286 185.935C173.61 183.925 177.878 185.235 179.582 188.635L208.823 247.366L208.792 247.42Z" fill="#00BC89"/>
</svg>
